<svg xmlns="http://www.w3.org/2000/svg" viewBox="0 0 340 100" width="1360" height="400">
  <g transform="translate(5, 0)">
    <line x1="50" y1="48" x2="30" y2="28" stroke="#14B8A6" stroke-width="2.2" opacity="0.9" stroke-linecap="round"/>
    <line x1="50" y1="48" x2="70" y2="25" stroke="#14B8A6" stroke-width="2.2" opacity="0.9" stroke-linecap="round"/>
    <line x1="50" y1="48" x2="78" y2="58" stroke="#14B8A6" stroke-width="2.2" opacity="0.9" stroke-linecap="round"/>
    <line x1="50" y1="48" x2="60" y2="80" stroke="#14B8A6" stroke-width="2.2" opacity="0.9" stroke-linecap="round"/>
    <line x1="50" y1="48" x2="25" y2="68" stroke="#14B8A6" stroke-width="2.2" opacity="0.9" stroke-linecap="round"/>
    <line x1="30" y1="28" x2="70" y2="25" stroke="#0F9690" stroke-width="1.4" opacity="0.55" stroke-linecap="round"/>
    <line x1="78" y1="58" x2="60" y2="80" stroke="#0F9690" stroke-width="1.4" opacity="0.55" stroke-linecap="round"/>
    <line x1="60" y1="80" x2="25" y2="68" stroke="#0F9690" stroke-width="1.4" opacity="0.55" stroke-linecap="round"/>
    <line x1="25" y1="68" x2="30" y2="28" stroke="#0F9690" stroke-width="1.4" opacity="0.55" stroke-linecap="round"/>
    <circle cx="50" cy="48" r="6" fill="#14B8A6"/>
    <circle cx="30" cy="28" r="3.2" fill="#14B8A6" opacity="0.95"/>
    <circle cx="70" cy="25" r="3.2" fill="#14B8A6" opacity="0.95"/>
    <circle cx="78" cy="58" r="3.2" fill="#14B8A6" opacity="0.95"/>
    <circle cx="60" cy="80" r="3.2" fill="#14B8A6" opacity="0.95"/>
    <circle cx="25" cy="68" r="3.2" fill="#14B8A6" opacity="0.95"/>
  </g>
  <text x="108" y="60" font-family="Inter, DM Sans, Helvetica Neue, sans-serif" font-size="34" font-weight="300" fill="#E8F4F2" letter-spacing="1.5">recursant</text>
</svg>
